name GIL01_xslow2.mot
datacolumns 153
datarows 4
range 1.33333325 1.35833323
endheader

                time	           pelvis_tx	           pelvis_ty	           pelvis_tz	         pelvis_tilt	         pelvis_list	     pelvis_rotation	       hip_flexion_r	     hip_adduction_r	      hip_rotation_r	        knee_angle_r	       ankle_angle_r	    subtalar_angle_r	         mtp_angle_r	       hip_flexion_l	     hip_adduction_l	      hip_rotation_l	        knee_angle_l	       ankle_angle_l	    subtalar_angle_l	         mtp_angle_l	    lumbar_extension	      lumbar_bending	     lumbar_rotation	     ground_force_vx	     ground_force_vy	     ground_force_vz	     ground_force_px	     ground_force_py	     ground_force_pz	     ground_force_vx	     ground_force_vy	     ground_force_vz	     ground_force_px	     ground_force_py	     ground_force_pz	     ground_torque_x	     ground_torque_y	     ground_torque_z	     ground_torque_x	     ground_torque_y	     ground_torque_z	    ground_marker_px	    ground_marker_py	    ground_marker_pz	    ground_marker_px	    ground_marker_py	    ground_marker_pz	    ground_marker_px	    ground_marker_py	    ground_marker_pz	    ground_marker_px	    ground_marker_py	    ground_marker_pz	    ground_marker_px	    ground_marker_py	    ground_marker_pz	    ground_marker_px	    ground_marker_py	    ground_marker_pz	    ground_marker_px	    ground_marker_py	    ground_marker_pz	    ground_marker_px	    ground_marker_py	    ground_marker_pz	    ground_marker_px	    ground_marker_py	    ground_marker_pz	    ground_marker_px	    ground_marker_py	    ground_marker_pz	    ground_marker_px	    ground_marker_py	    ground_marker_pz	    ground_marker_px	    ground_marker_py	    ground_marker_pz	    ground_marker_px	    ground_marker_py	    ground_marker_pz	    ground_marker_px	    ground_marker_py	    ground_marker_pz	    ground_marker_px	    ground_marker_py	    ground_marker_pz	    ground_marker_px	    ground_marker_py	    ground_marker_pz	    ground_marker_px	    ground_marker_py	    ground_marker_pz	    ground_marker_px	    ground_marker_py	    ground_marker_pz	    ground_marker_px	    ground_marker_py	    ground_marker_pz	    ground_marker_px	    ground_marker_py	    ground_marker_pz	    ground_marker_px	    ground_marker_py	    ground_marker_pz	    ground_marker_px	    ground_marker_py	    ground_marker_pz	    ground_marker_px	    ground_marker_py	    ground_marker_pz	    ground_marker_px	    ground_marker_py	    ground_marker_pz	    ground_marker_px	    ground_marker_py	    ground_marker_pz	    ground_marker_px	    ground_marker_py	    ground_marker_pz	    ground_marker_px	    ground_marker_py	    ground_marker_pz	    ground_marker_px	    ground_marker_py	    ground_marker_pz	    ground_marker_px	    ground_marker_py	    ground_marker_pz	    ground_marker_px	    ground_marker_py	    ground_marker_pz	    ground_marker_px	    ground_marker_py	    ground_marker_pz	    ground_marker_px	    ground_marker_py	    ground_marker_pz	    ground_marker_px	    ground_marker_py	    ground_marker_pz	    ground_marker_px	    ground_marker_py	    ground_marker_pz	    ground_marker_px	    ground_marker_py	    ground_marker_pz	    ground_marker_px	    ground_marker_py	    ground_marker_pz	    ground_marker_px	    ground_marker_py	    ground_marker_pz	
          1.33333325	          1.35528946	          0.81990767	         -0.19234493	         -1.97515011	          0.55420005	          1.70199645	          3.04116631	          3.33359528	         -2.79527664	         -3.53213978	          1.71310556	          0.00000000	          0.00000000	         20.44059372	         -1.67324924	         -1.55306780	        -36.05281830	          4.25210238	          0.00000000	          0.00000000	         -9.25940228	          0.67719251	          5.17091990	         -0.45172899	        385.60829102	        -17.57426992	          1.28273645	          0.00000000	         -0.15713400	          0.00000000	          0.00000000	          0.00000000	          0.96659540	          0.00000000	         -0.29009955	          0.00000000	          0.31815601	          0.00000000	          0.00000000	          0.00000000	          0.00000000	          1.29992461	          0.75329149	         -0.18855822	          1.28668535	          0.74993891	         -0.12649626	          1.28323364	          0.75209624	         -0.25674817	          1.29245770	          0.41041347	         -0.15208447	          1.38761258	          0.43880796	         -0.27436388	          1.27679837	          0.06557734	         -0.16754442	          1.28300309	          0.10719462	         -0.27302006	          1.35528946	          0.81990767	         -0.19234493	          1.35796845	          0.81823319	         -0.09124764	          1.35261035	          0.82158214	         -0.29344222	          1.19982862	          0.85992771	         -0.15523766	          1.19653726	          0.85788989	         -0.20987859	          1.29128861	          0.40626132	         -0.09725388	          1.38426602	          0.44074970	         -0.32872635	          1.29395413	          0.42103654	         -0.20035911	          1.39842665	          0.40813816	         -0.23562129	          1.27102101	          0.06417972	         -0.13051850	          1.27646387	          0.10911007	         -0.30938721	          1.27563286	          0.06942499	         -0.19254220	          1.28993928	          0.10553829	         -0.24382395	          1.22793496	          1.22783685	         -0.18326662	          1.33776593	          1.16875196	         -0.15001208	          1.32922530	          1.17215860	         -0.22526236	          1.31870496	          1.16940105	         -0.18741162	          1.34590065	          1.08693814	         -0.19180849	          1.39057362	          0.52728832	         -0.03410001	          1.49042869	          0.60008967	         -0.28179979	          1.31738663	          0.58447194	         -0.06263381	          1.40396655	          0.63308495	         -0.31473535	          1.31674397	          0.50115734	         -0.08489749	          1.42309165	          0.54776752	         -0.31515676	          1.26654744	          0.17010491	         -0.04797076	          1.32881975	          0.21889333	         -0.38634375	          1.26250947	          0.14046003	         -0.12510806	          1.30466366	          0.18729159	         -0.31239277	          1.37249148	          0.03664077	         -0.15541844	          1.36879563	          0.05708768	         -0.29620302	
          1.34166658	          1.35964847	          0.81976497	         -0.19185781	         -1.93602657	          0.64618415	          1.42168856	          2.61438751	          3.32323551	         -2.84478784	         -3.43401837	          2.00123858	          0.00000000	          0.00000000	         20.64604950	         -1.55386305	         -1.58634913	        -34.26423264	          4.37333632	          0.00000000	          0.00000000	         -9.35944080	          0.48795176	          5.48175669	         -0.30718959	        389.41503098	        -17.36613887	          1.28591016	          0.00000000	         -0.15716566	          0.00000000	          0.00000000	          0.00000000	          0.97021283	          0.00000000	         -0.29035236	          0.00000000	          0.36391528	          0.00000000	          0.00000000	          0.00000000	          0.00000000	          1.30437016	          0.75316095	         -0.18837084	          1.29075146	          0.74972796	         -0.12638864	          1.28796732	          0.75193262	         -0.25665572	          1.29433835	          0.41030726	         -0.15194967	          1.39382291	          0.43893093	         -0.27318981	          1.27699053	          0.06552408	         -0.16757095	          1.30073583	          0.10304662	         -0.27355304	          1.35964847	          0.81976497	         -0.19185781	          1.36180973	          0.81805366	         -0.09073965	          1.35748732	          0.82147634	         -0.29297599	          1.20401311	          0.85970461	         -0.15554772	          1.20094430	          0.85761744	         -0.21018943	          1.29281878	          0.40616262	         -0.09712712	          1.39075696	          0.44076678	         -0.32757255	          1.29859805	          0.42068422	         -0.20022397	          1.40405107	          0.40837079	         -0.23461214	          1.27103388	          0.06414749	         -0.13057265	          1.29429758	          0.10487027	         -0.30994290	          1.27571690	          0.06935692	         -0.19262065	          1.30739319	          0.10153686	         -0.24430905	          1.23217654	          1.22769284	         -0.18311480	          1.34203327	          1.16854477	         -0.14961025	          1.33341551	          1.17182386	         -0.22500695	          1.32293284	          1.16914427	         -0.18706855	          1.35004854	          1.08664799	         -0.19133277	          1.39258778	          0.52671522	         -0.03333657	          1.49568236	          0.60058773	         -0.28032586	          1.31990635	          0.58442926	         -0.06252380	          1.40939343	          0.63329816	         -0.31385815	          1.31974339	          0.50107539	         -0.08463597	          1.42881119	          0.54799902	         -0.31408238	          1.26671422	          0.17007349	         -0.04799924	          1.34316230	          0.21696670	         -0.38619280	          1.26288545	          0.14048034	         -0.12516166	          1.31969512	          0.18405873	         -0.31271803	          1.37267220	          0.03660142	         -0.15547675	          1.38846421	          0.05627665	         -0.29620323	
          1.34999990	          1.36403656	          0.81958556	         -0.19137505	         -1.89773750	          0.73460305	          1.13226616	          2.17798138	          3.31666899	         -2.85662913	         -3.32240701	          2.28470540	          0.00000000	          0.00000000	         20.83057022	         -1.44618034	         -1.69392955	        -32.43893433	          4.41222811	          0.00000000	          0.00000000	         -9.38555717	          0.61607045	          5.33858156	         -0.02736330	        393.16615681	        -17.08771187	          1.28911450	          0.00000000	         -0.15723442	          0.00000000	          0.00000000	          0.00000000	          0.97385724	          0.00000000	         -0.29063669	          0.00000000	          0.41222974	          0.00000000	          0.00000000	          0.00000000	          0.00000000	          1.30885744	          0.75301844	         -0.18821633	          1.29483771	          0.74948817	         -0.12628986	          1.29273927	          0.75172824	         -0.25656921	          1.29617798	          0.41019052	         -0.15183645	          1.39993191	          0.43900341	         -0.27202761	          1.27716577	          0.06547275	         -0.16761063	          1.31863546	          0.09922485	         -0.27415252	          1.36403656	          0.81958556	         -0.19137505	          1.36566567	          0.81784654	         -0.09023359	          1.36240733	          0.82132465	         -0.29251650	          1.20822084	          0.85944855	         -0.15589447	          1.20538008	          0.85731775	         -0.21052584	          1.29433596	          0.40605623	         -0.09702300	          1.39708519	          0.44071668	         -0.32642624	          1.30211651	          0.42037401	         -0.19995746	          1.40952563	          0.40851018	         -0.23354521	          1.27103758	          0.06411896	         -0.13063951	          1.31226635	          0.10097641	         -0.31055811	          1.27593005	          0.06927641	         -0.19270951	          1.32460284	          0.09783544	         -0.24478269	          1.23645389	          1.22769725	         -0.18308567	          1.34628689	          1.16831529	         -0.14913160	          1.33829331	          1.17174029	         -0.22449127	          1.32749701	          1.16899002	         -0.18669371	          1.35463190	          1.08649719	         -0.19090013	          1.39463687	          0.52616435	         -0.03263888	          1.50087988	          0.60094428	         -0.27904385	          1.32256281	          0.58436412	         -0.06246843	          1.41471934	          0.63335764	         -0.31301481	          1.32237828	          0.50102556	         -0.08435951	          1.43433738	          0.54811358	         -0.31305060	          1.26687908	          0.17004324	         -0.04804168	          1.35743618	          0.21527757	         -0.38607660	          1.26328325	          0.14046977	         -0.12523776	          1.33484948	          0.18104087	         -0.31286249	          1.37283540	          0.03656197	         -0.15552954	          1.40814722	          0.05574348	         -0.29624572	
          1.35833323	          1.36845589	          0.81937373	         -0.19089331	         -1.86244583	          0.81633407	          0.84060693	          1.73437023	          3.31491232	         -2.84159660	         -3.19768333	          2.55773687	          0.00000000	          0.00000000	         20.99994659	         -1.35208344	         -1.86285865	        -30.58840942	          4.35633564	          0.00000000	          0.00000000	         -9.37840843	          0.73292333	          5.23722029	          0.36907716	        396.42958593	        -16.84990862	          1.29237476	          0.00000000	         -0.15731464	          0.00000000	          0.00000000	          0.00000000	          0.97739642	          0.00000000	         -0.29094440	          0.00000000	          0.47032666	          0.00000000	          0.00000000	          0.00000000	          0.00000000	          1.31339693	          0.75288057	         -0.18808389	          1.29895246	          0.74922764	         -0.12618603	          1.29754114	          0.75148809	         -0.25647429	          1.29798412	          0.41006842	         -0.15173098	          1.40595388	          0.43902406	         -0.27088287	          1.27732813	          0.06542792	         -0.16765863	          1.33666098	          0.09577930	         -0.27480441	          1.36845589	          0.81937373	         -0.19089331	          1.36955178	          0.81761855	         -0.08972809	          1.36736000	          0.82112885	         -0.29205853	          1.21245313	          0.85916865	         -0.15627113	          1.20985126	          0.85700262	         -0.21088307	          1.29584455	          0.40594682	         -0.09692739	          1.40326905	          0.44060159	         -0.32529384	          1.30352545	          0.42042524	         -0.19990237	          1.41495299	          0.40845120	         -0.23261014	          1.27103436	          0.06409776	         -0.13071451	          1.33032453	          0.09747449	         -0.31121838	          1.27602160	          0.06922678	         -0.19280159	          1.34216237	          0.09451000	         -0.24535212	          1.24084413	          1.22743976	         -0.18310326	          1.35053706	          1.16800249	         -0.14877547	          1.34311604	          1.17155337	         -0.22402079	          1.33203340	          1.16873264	         -0.18639182	          1.35924101	          1.08626115	         -0.19054772	          1.39670575	          0.52562195	         -0.03200796	          1.50600016	          0.60114795	         -0.27793425	          1.32509387	          0.58413732	         -0.06231582	          1.41990185	          0.63326085	         -0.31220365	          1.32417023	          0.50089455	         -0.08420404	          1.43971086	          0.54805988	         -0.31212217	          1.26704252	          0.17001794	         -0.04809349	          1.37160635	          0.21383281	         -0.38599786	          1.26367056	          0.14044860	         -0.12534922	          1.35006142	          0.17839278	         -0.31286520	          1.37297165	          0.03651807	         -0.15556259	          1.42777801	          0.05550405	         -0.29634610	
